#!OML:ASF E:\acrobat2\Project_11_07_03\Capture day 1\Session 1\Acrobat.ASF
:FULLY-SPECIFIED
:DEGREES
697
root 14.1136 5.20719 3.16636 92.9583 32.4829 -175.634
lowerback 2.98877 -0.197132 9.48974
upperback 0.335525 0.238938 3.06435
thorax -1.31809 0.140181 -2.14934
lowerneck -7.09236 0.289075 -0.417805
upperneck -3.44355 0.569735 0.565809
head 0.103653 0.352525 0.25157
rclavicle 2.06736e-014 -3.8763e-015
rhumerus -45.1215 12.7745 -77.3695
rradius 23.6936
rwrist 15.25
rhand 4.46714 -38.8037
rfingers 7.12502
rthumb 29.8616 -66.416
lclavicle 2.06736e-014 -3.8763e-015
lhumerus -32.8886 -1.50899 67.7319
lradius 16.2512
lwrist -6.75628
lhand 11.204 -11.1553
lfingers 7.12502
lthumb 36.2674 15.0951
rfemur 3.15214 2.17362 34.8653
rtibia -0.652032
rfoot -9.48724 -24.5127
rtoes 47.0894
lfemur 0.632422 -4.72098 7.84015
ltibia 1.02346
lfoot 11.7641 14.671
ltoes 27.8171
698
root 14.1132 5.20624 3.16626 92.9625 32.4845 -175.618
lowerback 2.99556 -0.183971 9.49628
upperback 0.34255 0.256296 3.06002
thorax -1.31264 0.148928 -2.15814
lowerneck -7.09929 0.267926 -0.39977
upperneck -3.46873 0.541842 0.568925
head 0.0971978 0.338964 0.248931
rclavicle 1.98785e-014 2.61899e-014
rhumerus -45.111 12.6692 -77.3197
rradius 23.6828
rwrist 15.3243
rhand 4.63212 -38.6935
rfingers 7.12502
rthumb 30.019 -66.2773
lclavicle 1.98785e-014 2.61899e-014
lhumerus -32.8205 -1.85144 67.8417
lradius 16.2507
lwrist -6.43349
lhand 11.2273 -11.1101
lfingers 7.12502
lthumb 36.2894 15.1348
rfemur 3.14615 2.15559 34.8582
rtibia -0.650411
rfoot -9.5313 -24.5095
rtoes 47.0614
lfemur 0.640369 -4.70189 7.84199
ltibia 1.01822
lfoot 11.6713 14.9024
ltoes 28.3977
699
root 14.1129 5.20537 3.16623 92.9641 32.4863 -175.608
lowerback 2.99926 -0.176207 9.49851
upperback 0.348176 0.266156 3.05509
thorax -1.30773 0.153954 -2.16487
lowerneck -7.11821 0.253158 -0.382984
upperneck -3.47438 0.522105 0.595158
head 0.0986383 0.329465 0.2538
rclavicle 1.35174e-014 -4.46272e-014
rhumerus -45.0952 12.5752 -77.2775
rradius 23.659
rwrist 15.4193
rhand 4.41915 -38.802
rfingers 7.12502
rthumb 29.8158 -66.4225
lclavicle 1.35174e-014 -4.46272e-014
lhumerus -32.7666 -2.16065 67.9324
lradius 16.2539
lwrist -6.12984
lhand 11.2627 -11.0615
lfingers 7.12502
lthumb 36.323 15.175
rfemur 3.14108 2.14391 34.8531
rtibia -0.651417
rfoot -9.56951 -24.5158
rtoes 47.0608
lfemur 0.643097 -4.68483 7.84289
ltibia 1.01877
lfoot 11.668 14.9915
ltoes 28.3035
700
root 14.1127 5.2046 3.1663 92.9632 32.4883 -175.603
lowerback 3.0031 -0.176751 9.4969
upperback 0.351538 0.265312 3.05027
thorax -1.30644 0.153583 -2.16895
lowerneck -7.14863 0.243832 -0.379542
upperneck -3.4607 0.510197 0.653219
head 0.107833 0.324066 0.270795
rclavicle 5.56597e-015 -4.30617e-014
rhumerus -45.0825 12.5171 -77.258
rradius 23.6318
rwrist 15.5108
rhand 4.57064 -38.6681
rfingers 7.12502
rthumb 29.9604 -66.2625
lclavicle 5.56597e-015 -4.30617e-014
lhumerus -32.7359 -2.31076 67.963
lradius 16.2504
lwrist -5.97347
lhand 11.2887 -11.0306
lfingers 7.12502
lthumb 36.3476 15.1997
rfemur 3.13762 2.13143 34.8507
rtibia -0.652216
rfoot -9.58868 -24.5279
rtoes 47.0558
lfemur 0.642693 -4.67918 7.84257
ltibia 1.01997
lfoot 11.7834 14.8682
ltoes 27.3528
701
root 14.1127 5.20396 3.16642 92.9603 32.4905 -175.6
lowerback 3.00803 -0.18231 9.49346
upperback 0.352257 0.258145 3.04403
thorax -1.30921 0.149867 -2.17324
lowerneck -7.19969 0.234961 -0.392661
upperneck -3.42056 0.499655 0.743148
head 0.128534 0.319641 0.300406
rclavicle 2.3059e-014 -5.77469e-014
rhumerus -45.0776 12.4857 -77.2604
rradius 23.6097
rwrist 15.5939
rhand 4.35655 -38.7685
rfingers 7.12502
rthumb 29.756 -66.3997
lclavicle 2.3059e-014 -5.77469e-014
lhumerus -32.7262 -2.2464 67.9168
lradius 16.2332
lwrist -6.03302
lhand 11.29 -11.0295
lfingers 7.12502
lthumb 36.3488 15.2005
rfemur 3.1341 2.10735 34.8494
rtibia -0.642718
rfoot -9.53654 -24.5479
rtoes 46.9548
lfemur 0.640985 -4.68582 7.84158
ltibia 1.0204
lfoot 11.9243 14.6636
ltoes 26.169
702
root 14.1126 5.20357 3.16658 92.9555 32.4925 -175.602
lowerback 3.01382 -0.179647 9.49422
upperback 0.351843 0.261854 3.0364
thorax -1.31242 0.151324 -2.18173
lowerneck -7.26676 0.21391 -0.426618
upperneck -3.36606 0.474387 0.846252
head 0.156419 0.308295 0.337284
rclavicle 5.725e-014 -5.0044e-014
rhumerus -45.0856 12.4508 -77.2656
rradius 23.6004
rwrist 15.6603
rhand 4.52165 -38.6283
rfingers 7.12502
rthumb 29.9136 -66.2312
lclavicle 5.725e-014 -5.0044e-014
lhumerus -32.7185 -2.01094 67.8212
lradius 16.2008
lwrist -6.28987
lhand 11.2632 -11.0557
lfingers 7.12502
lthumb 36.3234 15.1807
rfemur 3.13435 2.10716 34.8506
rtibia -0.639067
rfoot -9.52776 -24.5822
rtoes 46.947
lfemur 0.637616 -4.6962 7.84064
ltibia 1.02615
lfoot 12.0873 14.367
ltoes 24.7607
703
root 14.1127 5.20343 3.16673 92.9493 32.4941 -175.609
lowerback 3.01929 -0.158341 9.50439
upperback 0.347941 0.290378 3.03113
thorax -1.31635 0.164716 -2.19395
lowerneck -7.32691 0.169434 -0.516493
upperneck -3.3127 0.422378 0.971365
head 0.183135 0.284467 0.389518
rclavicle -8.74653e-015 1.15618e-013
rhumerus -45.1199 12.3963 -77.2526
rradius 23.6084
rwrist 15.6987
rhand 4.59389 -38.5689
rfingers 7.12502
rthumb 29.9825 -66.1593
lclavicle -8.74653e-015 1.15618e-013
lhumerus -32.7034 -1.70828 67.7267
lradius 16.1575
lwrist -6.65728
lhand 11.214 -11.0998
lfingers 7.12502
lthumb 36.2769 15.1482
rfemur 3.14044 2.13908 34.8537
rtibia -0.632708
rfoot -9.51155 -24.6558
rtoes 46.8905
lfemur 0.632312 -4.70485 7.83996
ltibia 1.04097
lfoot 11.9926 14.4699
ltoes 25.2158
704
root 14.1127 5.20353 3.16682 92.9443 32.4948 -175.618
lowerback 3.02055 -0.130781 9.51515
upperback 0.345633 0.326618 3.02982
thorax -1.31543 0.182186 -2.2027
lowerneck -7.39107 0.116946 -0.645983
upperneck -3.2614 0.363128 1.1139
head 0.210175 0.257737 0.453585
rclavicle -2.22639e-014 1.44864e-014
rhumerus -45.1563 12.348 -77.2309
rradius 23.6249
rwrist 15.7064
rhand 4.98549 -38.306
rfingers 7.12502
rthumb 30.3561 -65.8281
lclavicle -2.22639e-014 1.44864e-014
lhumerus -32.6842 -1.39865 67.6459
lradius 16.1137
lwrist -7.03891
lhand 11.1582 -11.1466
lfingers 7.12502
lthumb 36.224 15.1146
rfemur 3.15082 2.20586 34.8569
rtibia -0.644816
rfoot -9.58471 -24.7411
rtoes 46.9724
lfemur 0.621514 -4.70427 7.83977
ltibia 1.06842
lfoot 11.8495 14.6188
ltoes 26.0208
705
root 14.1128 5.20385 3.16682 92.9418 32.4946 -175.626
lowerback 3.01917 -0.0889752 9.53292
upperback 0.34095 0.381741 3.03406
thorax -1.31342 0.208909 -2.21028
lowerneck -7.45143 0.0461498 -0.838668
upperneck -3.2136 0.284874 1.2888
head 0.236122 0.222568 0.537796
rclavicle -4.77083e-015 -5.11374e-014
rhumerus -45.2039 12.2817 -77.1814
rradius 23.6476
rwrist 15.6865
rhand 4.98494 -38.3025
rfingers 7.12502
rthumb 30.3556 -65.8247
lclavicle -4.77083e-015 -5.11374e-014
lhumerus -32.6461 -1.28378 67.6557
lradius 16.0809
lwrist -7.24641
lhand 11.1212 -11.175
lfingers 7.12502
lthumb 36.189 15.0949
rfemur 3.16721 2.32032 34.861
rtibia -0.668234
rfoot -9.68278 -24.8568
rtoes 47.0196
lfemur 0.602815 -4.69266 7.83977
ltibia 1.1109
lfoot 11.5714 14.972
ltoes 27.7489
